<svg width="90" height="70" viewBox="0 0 90 70" fill="none" xmlns="http://www.w3.org/2000/svg">
<path fill-rule="evenodd" clip-rule="evenodd" d="M73.062 30L51.562 8.5C49.562 6.5 49.562 3.5 51.562 1.5C53.562 -0.5 56.562 -0.5 58.562 1.5L88.562 31.5C89.062 32 89.562 32.5 89.562 33C90.062 34 90.062 35.5 89.562 37C89.062 37.5 89.062 38 88.562 38.5L58.562 68.5C57.562 69.5 56.562 70 55.062 70C53.562 70 52.562 69.5 51.562 68.5C49.562 66.5 49.562 63.5 51.562 61.5L73.062 40H5.06201C2.06201 40 0.0620117 38 0.0620117 35C0.0620117 32 2.06201 30 5.06201 30H73.062Z" fill="white"/>
</svg>
