<svg width="234" height="45" viewBox="0 0 234 45" fill="none"
    xmlns="http://www.w3.org/2000/svg">
    <path d="M49.0673 4.08779C45.2943 2.36647 41.2872 1.11194 37.1047 0.411743C36.5782 1.31618 35.9932 2.54151 35.5837 3.5043C31.135 2.86243 26.7185 2.86243 22.3312 3.5043C21.9216 2.54151 21.3074 1.31618 20.8102 0.411743C16.5984 1.11194 12.5914 2.36647 8.84464 4.08779C1.26926 15.2326 -0.778145 26.1149 0.245556 36.8513C5.2763 40.4981 10.1316 42.7156 14.9021 44.1744C16.072 42.5988 17.125 40.9066 18.0317 39.127C16.306 38.4852 14.6681 37.6974 13.0887 36.7637C13.4981 36.4722 13.9076 36.1512 14.2879 35.8303C23.8229 40.1774 34.1506 40.1774 43.5685 35.8303C43.978 36.1512 44.3583 36.4722 44.7678 36.7637C43.1883 37.6974 41.5505 38.4852 39.8247 39.127C40.7315 40.9066 41.7845 42.5988 42.9543 44.1744C47.7219 42.7156 52.6064 40.4981 57.6108 36.8513C58.8684 24.4228 55.619 13.6281 49.0673 4.08779ZM19.3478 30.2286C16.4815 30.2286 14.1416 27.6321 14.1416 24.452C14.1416 21.272 16.423 18.6753 19.3478 18.6753C22.2434 18.6753 24.6125 21.272 24.554 24.452C24.554 27.6321 22.2434 30.2286 19.3478 30.2286ZM38.5672 30.2286C35.7007 30.2286 33.3578 27.6321 33.3578 24.452C33.3578 21.272 35.6422 18.6753 38.5672 18.6753C41.4627 18.6753 43.8318 21.272 43.7733 24.452C43.7733 27.6321 41.492 30.2286 38.5672 30.2286Z" fill="#7B83EB"/>
    <path d="M77.8799 9.57153H90.3136C93.2969 9.57153 95.8415 10.0383 97.9182 10.9719C99.9948 11.9056 101.545 13.1893 102.569 14.8522C103.592 16.5153 104.119 18.4115 104.119 20.5706C104.119 22.6711 103.593 24.5676 102.51 26.2888C101.428 27.981 99.7902 29.3521 97.5965 30.3441C95.4029 31.3361 92.6826 31.8321 89.4361 31.8321H77.8799V9.57153ZM89.2898 26.1721C91.3079 26.1721 92.8581 25.6761 93.9404 24.6551C95.0226 23.6631 95.5784 22.2626 95.5784 20.5414C95.5784 18.9367 95.0812 17.6529 94.1159 16.6903C93.1507 15.7275 91.6883 15.2315 89.7286 15.2315H85.8385V26.1721H89.2898Z" fill="#7B83EB"/>
    <path d="M123.484 31.8045C121.759 31.3668 120.208 30.725 118.834 29.8497V24.5689C119.887 25.3858 121.261 26.0277 123.016 26.5529C124.771 27.0781 126.468 27.3407 128.106 27.3407C128.866 27.3407 129.451 27.2531 129.831 27.0489C130.211 26.8447 130.416 26.6113 130.416 26.3195C130.416 25.9986 130.299 25.736 130.094 25.5317C129.89 25.3275 129.48 25.1524 128.866 24.9774L125.034 24.1315C122.841 23.6355 121.291 22.906 120.355 22.0307C119.419 21.1555 118.98 19.9594 118.98 18.5006C118.98 17.2752 119.389 16.1958 120.179 15.2914C120.998 14.3869 122.139 13.6867 123.631 13.1907C125.122 12.6948 126.848 12.4323 128.866 12.4323C130.65 12.4323 132.288 12.6073 133.78 13.0158C135.271 13.3949 136.5 13.8909 137.465 14.4744V19.4634C136.471 18.8799 135.301 18.4131 134.014 18.0629C132.697 17.7128 131.352 17.5378 129.977 17.5378C127.988 17.5378 126.994 17.8879 126.994 18.5589C126.994 18.8799 127.14 19.1133 127.462 19.2883C127.784 19.4634 128.339 19.6093 129.158 19.7843L132.346 20.3679C134.423 20.7178 135.973 21.3597 136.997 22.2642C138.021 23.1686 138.518 24.4814 138.518 26.2611C138.518 28.1868 137.67 29.733 135.973 30.8417C134.277 31.9795 131.878 32.5337 128.778 32.5337C126.965 32.4754 125.21 32.2419 123.484 31.8045Z" fill="#7B83EB"/>
    <path d="M146.418 31.1342C144.605 30.2297 143.201 29.0336 142.294 27.5165C141.358 25.9993 140.919 24.2781 140.919 22.3524C140.919 20.4561 141.387 18.7347 142.353 17.2469C143.318 15.7297 144.722 14.5627 146.564 13.6876C148.407 12.8415 150.63 12.4038 153.204 12.4038C156.392 12.4038 159.024 13.0749 161.13 14.4168V20.2227C160.399 19.7267 159.522 19.2891 158.527 18.9973C157.533 18.6764 156.48 18.5305 155.368 18.5305C153.379 18.5305 151.859 18.8806 150.718 19.61C149.606 20.3394 149.051 21.2731 149.051 22.4399C149.051 23.5778 149.577 24.5115 150.689 25.2409C151.771 25.9701 153.35 26.3494 155.398 26.3494C156.45 26.3494 157.503 26.2035 158.527 25.8826C159.551 25.5616 160.457 25.2117 161.189 24.7449V30.3756C158.849 31.776 156.129 32.4763 153.058 32.4763C150.455 32.4763 148.261 32.0095 146.418 31.1342Z" fill="#7B83EB"/>
    <path d="M169.469 31.1342C167.626 30.2297 166.222 29.0336 165.257 27.4873C164.292 25.9409 163.795 24.2197 163.795 22.2941C163.795 20.3978 164.292 18.6764 165.257 17.1886C166.222 15.7006 167.626 14.5335 169.44 13.6876C171.253 12.8415 173.447 12.4038 175.965 12.4038C178.48 12.4038 180.674 12.8123 182.488 13.6876C184.301 14.5335 185.705 15.7006 186.67 17.1886C187.635 18.6764 188.103 20.3686 188.103 22.2941C188.103 24.1905 187.635 25.9409 186.67 27.4873C185.705 29.0336 184.33 30.2589 182.488 31.1342C180.645 32.0095 178.48 32.4763 175.965 32.4763C173.476 32.4763 171.312 32.0095 169.469 31.1342ZM179.153 25.5033C179.914 24.7449 180.323 23.6945 180.323 22.4399C180.323 21.1564 179.943 20.1644 179.153 19.4058C178.363 18.6472 177.31 18.2679 175.994 18.2679C174.62 18.2679 173.564 18.6472 172.774 19.4058C172.014 20.1644 171.604 21.1564 171.604 22.4399C171.604 23.7237 171.984 24.7449 172.774 25.5033C173.564 26.2911 174.62 26.6704 175.994 26.6704C177.31 26.6412 178.393 26.2619 179.153 25.5033Z" fill="#7B83EB"/>
    <path d="M207.671 13.5696V20.4258C206.852 19.9007 205.799 19.6381 204.512 19.6381C202.816 19.6381 201.498 20.1633 200.593 21.1842C199.685 22.2054 199.217 23.8101 199.217 25.969V31.8041H191.408V13.2486H199.072V19.1712C199.481 17.0122 200.183 15.4077 201.119 14.3865C202.055 13.3653 203.284 12.8112 204.775 12.8112C205.886 12.8112 206.852 13.0737 207.671 13.5696Z" fill="#7B83EB"/>
    <path d="M234 8.9306V31.8329H226.191V27.6609C225.518 29.2364 224.523 30.4327 223.178 31.2494C221.83 32.0664 220.162 32.4748 218.173 32.4748C216.418 32.4748 214.869 32.0372 213.552 31.1911C212.236 30.3451 211.213 29.1489 210.511 27.6609C209.809 26.1439 209.458 24.4517 209.458 22.5846C209.428 20.6297 209.809 18.8793 210.598 17.333C211.359 15.7868 212.47 14.5906 213.874 13.7153C215.278 12.84 216.886 12.4024 218.7 12.4024C222.415 12.4024 224.904 14.0071 226.191 17.2455V8.9306H234ZM225.021 25.3561C225.81 24.5976 226.22 23.5764 226.22 22.3512C226.22 21.1549 225.84 20.1921 225.05 19.4629C224.261 18.7335 223.208 18.3542 221.889 18.3542C220.572 18.3542 219.519 18.7335 218.73 19.4921C217.939 20.2505 217.56 21.2133 217.56 22.4387C217.56 23.6639 217.939 24.6267 218.73 25.3853C219.519 26.1439 220.543 26.5232 221.859 26.5232C223.178 26.5232 224.231 26.1439 225.021 25.3561Z" fill="#7B83EB"/>
    <path d="M111.317 14.3583C113.56 14.3583 115.383 12.7253 115.383 10.7114C115.383 8.69715 113.56 7.06451 111.317 7.06451C109.071 7.06451 107.251 8.69715 107.251 10.7114C107.251 12.7253 109.071 14.3583 111.317 14.3583Z" fill="#7B83EB"/>
    <path d="M115.383 16.8654C112.896 17.9447 109.796 17.9739 107.251 16.8654V31.8321H115.383V16.8654Z" fill="#7B83EB"/>
</svg>
