<svg width="98" height="98" viewBox="0 0 98 98" fill="none"
    xmlns="http://www.w3.org/2000/svg">
    <path d="M12.5787 0H85.4213C92.3391 0 97.999 5.12162 97.999 12.5776V85.4224C97.999 92.8784 92.3391 98 85.4213 98H12.5787C5.65894 98 0 92.8784 0 85.4224V12.5776C0 5.12162 5.65894 0 12.5787 0ZM71.3887 10.8882C68.9617 10.8882 66.9785 12.8725 66.9785 15.3005V25.8607C66.9785 28.2876 68.9617 30.2729 71.3887 30.2729H82.4651C84.8921 30.2729 86.8773 28.2876 86.8773 25.8607V15.3005C86.8773 12.8725 84.8921 10.8882 82.4651 10.8882H71.3887ZM86.9236 41.4439H78.2984C79.1144 44.1083 79.5561 46.9307 79.5561 49.8508C79.5561 66.1514 65.9159 79.365 49.0931 79.365C32.2712 79.365 18.633 66.1514 18.633 49.8508C18.633 46.9287 19.0738 44.1073 19.8908 41.4439H10.8902V82.8404C10.8902 84.9826 12.6431 86.7365 14.7863 86.7365H83.0296C85.1728 86.7365 86.9256 84.9837 86.9256 82.8404V41.4439H86.9236ZM49.0921 29.7165C38.223 29.7165 29.4106 38.2542 29.4106 48.7872C29.4106 59.3202 38.223 67.8579 49.0921 67.8579C59.9622 67.8579 68.7756 59.3202 68.7756 48.7872C68.7756 38.2542 59.9632 29.7165 49.0921 29.7165Z" fill="#7B83EB"/>
</svg>
