<svg width="105" height="105" viewBox="0 0 105 105" fill="none"
    xmlns="http://www.w3.org/2000/svg">
    <path d="M96.25 48.125V65.625C96.25 72.8744 90.3744 78.75 83.125 78.75C75.8756 78.75 70 72.8744 70 65.625V43.75H91.875C94.2922 43.75 96.25 45.7078 96.25 48.125ZM83.125 35C87.9572 35 91.875 31.0822 91.875 26.25C91.875 21.4178 87.9572 17.5 83.125 17.5C78.2928 17.5 74.375 21.4178 74.375 26.25C74.375 31.0822 78.2928 35 83.125 35Z" fill="#7B83EB"/>
    <path d="M76.5625 48.125V72.1875C76.5625 84.7503 65.9728 94.8413 53.2306 94.0144C41.6041 93.2619 32.8125 83.0878 32.8125 71.4372V43.75H72.1875C74.6047 43.75 76.5625 45.7078 76.5625 48.125ZM54.6875 37.1875C61.9369 37.1875 67.8125 31.3119 67.8125 24.0625C67.8125 16.8131 61.9369 10.9375 54.6875 10.9375C47.4381 10.9375 41.5625 16.8131 41.5625 24.0625C41.5625 31.3119 47.4381 37.1875 54.6875 37.1875Z" fill="#7B83EB"/>
    <path d="M54.6875 37.1875C61.9362 37.1875 67.8125 31.3112 67.8125 24.0625C67.8125 16.8138 61.9362 10.9375 54.6875 10.9375C47.4388 10.9375 41.5625 16.8138 41.5625 24.0625C41.5625 31.3112 47.4388 37.1875 54.6875 37.1875Z" fill="#7B83EB"/>
    <path opacity="0.05" d="M56.875 72.8853V43.75H32.8125V71.4372C32.8125 74.7928 33.5628 78.0172 34.8775 80.9375H48.8206C53.27 80.9375 56.875 77.3325 56.875 72.8853Z" fill="black"/>
    <path opacity="0.07" d="M32.8125 43.75V71.4372C32.8125 73.9747 33.2522 76.4334 34.0244 78.75H48.5888C52.36 78.75 55.4159 75.6941 55.4159 71.9228V43.75H32.8125Z" fill="black"/>
    <path opacity="0.09" d="M53.9591 43.75H32.8125V71.4372C32.8125 73.1916 33.0334 74.9022 33.4119 76.5625H48.3569C51.45 76.5625 53.9569 74.0556 53.9569 70.9625V43.75H53.9591Z" fill="black"/>
    <path d="M48.125 74.375H13.125C10.7078 74.375 8.75 72.4172 8.75 70V35C8.75 32.5828 10.7078 30.625 13.125 30.625H48.125C50.5422 30.625 52.5 32.5828 52.5 35V70C52.5 72.4172 50.5422 74.375 48.125 74.375Z" fill="url(#paint0_linear_23_358)"/>
    <path d="M39.5238 41.5603H21.7263V45.3228H28.3916V63.4353H32.8585V45.3228H39.5238V41.5603Z" fill="white"/>
    <defs>
        <linearGradient id="paint0_linear_23_358" x1="10.1675" y1="32.0425" x2="51.1941" y2="73.0691" gradientUnits="userSpaceOnUse">
            <stop stop-color="#5961C3"/>
            <stop offset="1" stop-color="#3A41AC"/>
        </linearGradient>
    </defs>
</svg>
