<svg width="98" height="98" viewBox="0 0 98 98" fill="none"
    xmlns="http://www.w3.org/2000/svg">
    <g clip-path="url(#clip0_23_356)">
        <path d="M53.7448 77.5588C56.2316 77.5588 57.2483 75.901 57.2197 73.8225C57.0932 65.9948 60.1352 61.7808 65.6273 67.2729C71.7033 73.3489 72.961 77.5588 80.3396 77.5588H93.4062C96.7056 77.5588 98.0041 76.4971 98.0041 74.8311C98.0041 71.3072 92.2017 65.0883 87.2853 60.5231C80.4008 54.1327 80.0782 53.9816 86.0072 46.2886C93.3613 36.7377 102.982 24.5 94.472 24.5H78.2162C75.0639 24.5 74.8352 26.2762 73.7123 28.9222C69.6494 38.5058 61.9278 50.9191 58.996 49.0204C55.9294 47.04 57.3341 39.1959 57.5668 27.538C57.6281 24.4591 57.6117 22.348 52.9077 21.2537C50.3393 20.6616 47.8403 20.4166 45.521 20.4166C36.2396 20.4166 29.8369 24.308 33.4752 24.9859C39.8901 26.1823 39.2735 40.0615 37.779 46.0559C35.1738 56.4929 25.382 37.7912 21.3027 28.4771C20.3187 26.2395 20.0165 24.5 16.5048 24.5H3.21358C1.20458 24.5 0 25.1533 0 26.607C0 29.0651 12.0867 54.047 23.6262 66.5011C34.8798 78.649 46.0028 77.5588 53.7448 77.5588Z" fill="#7B83EB"/>
    </g>
    <defs>
        <clipPath id="clip0_23_356">
            <rect width="98" height="98" fill="white"/>
        </clipPath>
    </defs>
</svg>
